<svg height="489.02997" viewBox="0 0 691.33587 489.02997" width="691.33587" xmlns="http://www.w3.org/2000/svg"><path d="m942.37829 365.12258c-9.53656 33.08356-37.38213 56.2424-66.42859 75.91553q-6.0835 4.12119-12.17087 8.05276c-.02749.012-.05582.03768-.08365.05-.19525.12542-.39088.2511-.5728.37734-.83757.5399-1.67544 1.08016-2.50606 1.61384l.45626.205s.448.23823-.04214.03819c-.14589-.061-.29872-.11582-.44431-.17719-16.87415-6.80561-34.048-14.11275-46.97949-26.8619-13.41453-13.23916-21.25393-34.00418-13.99008-51.39659a33.20766 33.20766 0 0 1 3.5956-6.45359c.5892-.84313 1.22378-1.65009 1.88447-2.4421a35.59319 35.59319 0 0 1 61.13237 10.81577c2.134-19.86884-14.24941-36.512-30.016-48.79213-15.77356-12.274-33.69674-25.64058-36.74619-45.39912-1.70294-10.9934 2.11992-21.64706 9.08376-30.19945.2156-.25986.43089-.51936.653-.7721a51.945 51.945 0 0 1 33.387-17.91151c24.18672-2.51372 47.6804 10.28875 65.25152 27.10539 28.28054 27.05682 45.37742 68.61606 34.5362 106.23186z" fill="#f2f2f2" transform="translate(-254.33206 -205.48502)"/><path d="m896.916 321.84967a88.30333 88.30333 0 0 1 10.57914 23.333 76.67467 76.67467 0 0 1 2.65029 22.64563c-.43468 15.70057-5.26563 31.043-12.86659 44.708a141.38984 141.38984 0 0 1 -21.32914 28.50182q-6.0835 4.12119-12.17087 8.05276c-.02749.012-.05582.03768-.08365.05-.19525.12542-.39088.2511-.5728.37734-.83757.5399-1.67544 1.08016-2.50606 1.61384 0 0 .90429.4432.41412.24316-.14589-.061-.29872-.11582-.44431-.17719a78.15741 78.15741 0 0 0 -25.0093-67.29586 78.82691 78.82691 0 0 0 -32.36467-17.41617c.5892-.84313 1.22378-1.65009 1.88447-2.4421a81.72794 81.72794 0 0 1 13.49027 5.10487 80.08109 80.08109 0 0 1 36.20832 34.909 81.87421 81.87421 0 0 1 8.91443 44.92834c.69331-.62828 1.38747-1.2702 2.06069-1.90606 12.82253-11.95459 24.2115-25.67651 31.91919-41.51276a91.39288 91.39288 0 0 0 9.57005-43.241c-.62905-16.3343-7.13721-31.46406-16.56016-44.63539-10.09394-14.09647-22.74877-26.5681-36.26251-37.3723a217.37693 217.37693 0 0 0 -45.09985-27.84376 1.56289 1.56289 0 0 1 -.78653-2.00584 1.32935 1.32935 0 0 1 .653-.7721 1.15723 1.15723 0 0 1 1.005.0427c1.98939.91584 3.965 1.8442 5.92469 2.8127a219.84437 219.84437 0 0 1 45.42128 29.96187c13.36972 11.39851 25.95658 24.42135 35.3615 39.3355z" fill="#fff" transform="translate(-254.33206 -205.48502)"/><circle cx="532.41146" cy="313.69784" fill="#2f2e41" r="35.37135"/><ellipse cx="751.37218" cy="492.34942" fill="#2f2e41" rx="14.63642" ry="10.97732" transform="matrix(.70710678 -.70710678 .70710678 .70710678 -382.40386 470.02115)"/><ellipse cx="810.15005" cy="483.12936" fill="#2f2e41" rx="10.97732" ry="14.63642" transform="matrix(.39282574 -.91961293 .91961293 .39282574 -206.72186 832.8831)"/><path d="m861.65189 671.055a131.81283 131.81283 0 0 1 -19.19971 11.07l-.99023-1.75-9.48-16.63995-.83008-1.46-4.84961-8.51-.01025-.01-15.31006-26.9-7.86963-13.81 23.36963-16.39 9.09033 19.22 4.92969 10.44 20.29 42.91z" fill="#a0616a" transform="translate(-254.33206 -205.48502)"/><path d="m840.772 606.155-2.93018-4.59-12.96-20.33a16.35623 16.35623 0 0 0 -29.89982 13.27l8.01025 28.54a5.87464 5.87464 0 0 0 7.98975 3.81c.03027-.01.05029-.02.08007-.03l24.51026-10.95 2.63965-1.18a5.90107 5.90107 0 0 0 2.56006-8.54z" fill="#6c63ff" transform="translate(-254.33206 -205.48502)"/><path d="m770.35208 606.795-6.81982 15.4-1.48 3.35-25.25 57.04-.81006 1.83a131.09328 131.09328 0 0 1 -19.68018-10.24l.68018-1.92 20.60986-58.15 5.06006-14.28 11.08008 2.79z" fill="#a0616a" transform="translate(-254.33206 -205.48502)"/><circle cx="787.86534" cy="527.62681" fill="#a0616a" r="30.01929" transform="matrix(.47965987 -.8774545 .8774545 .47965987 -307.34259 760.37645)"/><g transform="translate(-254.33206 -205.48502)"><path d="m840.19193 613.245a66.79891 66.79891 0 0 0 -2.3501-11.68 65.095 65.095 0 0 0 -18.80957-29.84 17.78783 17.78783 0 0 0 -11.90039-4.55h-42.29a17.78318 17.78318 0 0 0 -15.92969 25.78l4.83008 9.66 9.79 19.58 2.34961 4.69 10.47021 20.95.83008 1.66 53.1499 14.62.23-.51c.2002-.45.39991-.89.58985-1.33.29-.67.58008-1.32.8501-1.98 5.36035-12.71 7.89013-24.02 8.5-33.98a75.64747 75.64747 0 0 0 -.31008-13.07z" fill="#6c63ff"/><path d="m772.51224 572.655a16.33208 16.33208 0 0 0 -21.68994 7.8l-3.77 5.69-12.6001 19.02a5.89309 5.89309 0 0 0 2.41016 8.59l.73974.35 24.4502 11.44 1.73975.81a5.65793 5.65793 0 0 0 2.08984.53 5.76186 5.76186 0 0 0 2.82031-.49 5.87867 5.87867 0 0 0 3.23-3.68l8.46-28.31a16.37189 16.37189 0 0 0 -7.87996-21.75z" fill="#6c63ff"/><path d="m832.002 660.295a5.4613 5.4613 0 0 0 -.8501-1.73 22.88259 22.88259 0 0 0 -4.84961-4.8l-.01025-.01c-6.42969-4.87-19.23-10.56-43.91993-10.71h-.04a5.8972 5.8972 0 0 0 -5.37011 3.45l-.60987 1.34-3.93017 8.64a4.50764 4.50764 0 0 1 -1.52979 1.85c-3.55029 2.51-14.85009 11.61-20.68994 28.99-.21.62-.41015 1.25-.6001 1.9a132.09857 132.09857 0 0 0 76.37012-.69l.54981-2.27 5.46-22.51995.09033-.37006a5.91045 5.91045 0 0 0 -.07039-3.06999z" fill="#2f2e41"/><path d="m756.32205 508.74476a40.82856 40.82856 0 0 0 23.33326 7.211 25.01983 25.01983 0 0 1 -9.91672 4.07982 82.328 82.328 0 0 0 33.62847.18895 21.76455 21.76455 0 0 0 7.03979-2.41786 8.90912 8.90912 0 0 0 4.34529-5.81136c.7378-4.21489-2.54649-8.04421-5.95961-10.625a43.96047 43.96047 0 0 0 -36.94134-7.3819c-4.12658 1.06667-8.26049 2.8689-10.94082 6.18286s-3.47428 8.423-.92061 11.83553z" fill="#2f2e41"/></g><path d="m1.08599 30.47938h542.31608v2.17361h-542.31608z" fill="#3f3d56"/><circle cx="19.56169" cy="16.30746" fill="#3f3d56" r="6.52083"/><circle cx="38.30909" cy="16.30746" fill="#3f3d56" r="6.52083"/><circle cx="57.05649" cy="16.30746" fill="#3f3d56" r="6.52083"/><g transform="translate(-254.33206 -205.48502)"><path d="m680.28324 362.107h-307.79886a6.97561 6.97561 0 1 1 0-13.95122h307.79886a6.97561 6.97561 0 1 1 0 13.95122z" fill="#ccc"/><path d="m680.28324 437.09483h-307.79886a6.97561 6.97561 0 1 1 0-13.95122h307.79886a6.97561 6.97561 0 1 1 0 13.95122z" fill="#e6e6e6"/><path d="m680.28324 465.86923h-307.79886a6.97561 6.97561 0 1 1 0-13.95122h307.79886a6.97561 6.97561 0 1 1 0 13.95122z" fill="#e6e6e6"/><path d="m630.146 332.46066h-207.52441a6.97561 6.97561 0 1 1 0-13.95122h207.52441a6.97561 6.97561 0 0 1 0 13.95122z" fill="#ccc"/><path d="m480.99771 408.32044h-108.122a6.97562 6.97562 0 1 1 0-13.95123h108.122a6.97561 6.97561 0 0 1 0 13.95123z" fill="#e6e6e6"/><path d="m680.67458 408.32044h-108.122a6.97562 6.97562 0 1 1 0-13.95123h108.122a6.97562 6.97562 0 1 1 0 13.95123z" fill="#e6e6e6"/><path d="m791.212 205.485h-529.27984a7.61168 7.61168 0 0 0 -7.6001 7.61v358.65a7.6096 7.6096 0 0 0 7.6001 7.6h395.79c-.1001-.72-.18017-1.45-.26025-2.17h-395.52975a5.435 5.435 0 0 1 -5.43017-5.43v-358.65a5.44356 5.44356 0 0 1 5.43017-5.44h529.27984a5.44563 5.44563 0 0 1 5.43994 5.44v219.81c.72021.05 1.45019.11 2.17041.18v-219.99a7.61385 7.61385 0 0 0 -7.61035-7.61z" fill="#3f3d56"/><path d="m657.7222 579.345c-.1001-.72-.18017-1.45-.26025-2.17-.02-.11-.02979-.21-.04-.32q-.43506-3.945-.62988-7.97-.82471 3.465-1.48975 6.96c.02978.34.06006.67.09961 1.01.01025.11.02.21.04.32.08008.72.16015 1.45.26025 2.17.27979 2.23.62012 4.43 1.02 6.62.00977-.09.02-.17.02979-.26.28027-2.11.60009-4.21.98-6.31a.092.092 0 0 1 -.00977-.05zm141.1001-148.27c-.72022-.07-1.4502-.13-2.17041-.18-.10986-.01-.21-.01-.31983-.02-3.20019-.24-6.43994-.36-9.70019-.36a132.0411 132.0411 0 0 0 -131.32959 145.33c.02978.34.06006.67.09961 1.01.01025.11.02.21.04.32.08008.72.16015 1.45.26025 2.17.27979 2.23.62012 4.43 1.02 6.62a132.57434 132.57434 0 0 0 79.27 98.45c2.08008.86 4.17969 1.68 6.31006 2.43 1.3999.51 2.7998.98 4.21973 1.43 1.02.33 2.05029.64 3.08007.94 1.46.43 2.93995.84 4.43018 1.22a131.35519 131.35519 0 0 0 107.61963-19.38h.01025a131.92892 131.92892 0 0 0 56.96973-108.54c.00008-68.68-52.71965-125.27-119.80949-131.44zm61.9697 238.15a129.37688 129.37688 0 0 1 -19.33008 11.15 128.00858 128.00858 0 0 1 -14.93994 5.88 130.22913 130.22913 0 0 1 -71.08008 2.47q-2.63965-.645-5.23975-1.41-2.56494-.75-5.08008-1.59c-1.37011-.47-2.74023-.95-4.10009-1.46-1.41993-.54-2.81983-1.1-4.21973-1.68a130.33475 130.33475 0 0 1 -79.07025-103.19.092.092 0 0 1 -.00977-.05c-.1001-.72-.18017-1.45-.26025-2.17-.02-.11-.02979-.21-.04-.32q-.43506-3.945-.62988-7.97-.16481-3.165-.16016-6.37a130.14245 130.14245 0 0 1 130-130c3.26025 0 6.5.12 9.70019.36.10987.01.21.02.31983.03.72021.05 1.45019.11 2.17041.18 65.98974 6.16 117.80957 61.85 117.80957 129.43a129.91362 129.91362 0 0 1 -55.83994 106.71zm-119.77 15.04c-1.41993-.54-2.81983-1.1-4.21973-1.68a130.33475 130.33475 0 0 1 -79.07027-103.19c-.37989 2.1-.69971 4.2-.98 6.31-.00977.09-.02.17-.02979.26a132.57434 132.57434 0 0 0 79.27 98.45c2.08008.86 4.17969 1.68 6.31006 2.43-.43993-.85-.87011-1.71-1.28027-2.58zm55.31-253.39c-3.20019-.24-6.43994-.36-9.70019-.36a132.0411 132.0411 0 0 0 -131.32959 145.33c.02978.34.06006.67.09961 1.01.01025.11.02.21.04.32h2.02c-.02-.11-.02979-.21-.04-.32q-.43506-3.945-.62988-7.97-.16481-3.165-.16016-6.37a130.14245 130.14245 0 0 1 130-130c3.26025 0 6.5.12 9.70019.36.10987.01.21.02.31983.03v-2.01c-.10981-.01-.20988-.01-.31975-.02z" fill="#3f3d56"/><path d="m893.92661 464.30169c40.544.6924 40.53765 61.00085-.0013 61.68733-40.5427-.69235-40.53631-61.0008.0013-61.68733z" fill="#6c63ff"/><path d="m893.92679 511.93982a2.17023 2.17023 0 0 1 -2.16765-2.16764v-11.49294a.96717.96717 0 0 0 -.96591-.9662h-11.49293a2.16794 2.16794 0 0 1 0-4.33588h11.49293a.96667.96667 0 0 0 .96591-.96562v-11.49354a2.1675 2.1675 0 0 1 4.335 0v11.49352a.96667.96667 0 0 0 .96591.96562h11.49295a2.16794 2.16794 0 0 1 0 4.33588h-11.49295a.96717.96717 0 0 0 -.96591.9662v11.49294a2.17017 2.17017 0 0 1 -2.16735 2.16766z" fill="#fff"/></g></svg>